<?xml version="1.0" standalone="no"?>
<!DOCTYPE svg PUBLIC "-//W3C//DTD SVG 20010904//EN"
 "http://www.w3.org/TR/2001/REC-SVG-20010904/DTD/svg10.dtd">
<svg version="1.0" xmlns="http://www.w3.org/2000/svg"
 width="1280.000000pt" height="413.000000pt" viewBox="0 0 1280.000000 413.000000"
 preserveAspectRatio="xMidYMid meet">
<metadata>
Created by potrace 1.15, written by Peter Selinger 2001-2017
</metadata>
<g transform="translate(0.000000,413.000000) scale(0.100000,-0.100000)"
fill="#000000" stroke="none">
<path d="M2800 3624 c0 -9 -7 -22 -17 -29 -14 -10 -15 -18 -5 -55 8 -34 8 -46
-3 -56 -19 -19 -24 -18 -35 9 -8 21 -9 20 -10 -8 0 -16 -7 -39 -15 -49 -18
-24 -19 -53 -3 -58 10 -4 10 -10 1 -31 -9 -19 -17 -24 -32 -20 -18 5 -21 1
-21 -30 0 -19 -6 -40 -14 -46 -14 -12 -15 -23 -1 -54 4 -10 5 -21 1 -24 -3 -4
-6 2 -6 12 0 15 -3 16 -12 7 -6 -6 -13 -20 -14 -29 -4 -29 -13 -65 -18 -71 -3
-2 -13 -1 -23 3 -22 9 -201 10 -210 1 -4 -3 40 -6 97 -6 83 0 102 -3 92 -12
-8 -8 -44 -14 -85 -16 -108 -4 -160 -11 -171 -22 -7 -7 34 -10 126 -10 127 0
136 1 141 20 3 11 10 20 15 20 6 0 8 -9 5 -20 -4 -15 0 -20 15 -20 25 0 44 23
36 44 -4 10 -1 16 9 16 9 0 18 13 22 33 4 17 14 40 22 49 9 10 16 38 16 68 1
48 10 64 20 38 3 -8 6 -4 7 7 1 11 3 25 5 30 1 6 3 18 3 28 1 10 7 15 12 12 6
-3 10 1 10 9 0 9 -4 16 -10 16 -19 0 -10 28 15 44 14 9 25 24 25 34 0 15 2 15
10 2 9 -13 10 -13 11 0 1 8 1 18 0 23 0 4 6 7 14 7 8 0 15 -9 15 -20 0 -11 5
-20 10 -20 6 0 10 -15 10 -33 0 -32 19 -87 31 -87 3 0 4 13 1 29 -2 17 3 39
12 53 17 24 21 64 7 72 -9 6 -26 74 -22 89 1 5 -3 6 -8 3 -5 -4 -12 0 -14 6
-4 10 -6 10 -6 0 -1 -21 -21 -3 -21 19 0 10 5 19 10 19 6 0 10 5 10 10 0 6
-13 10 -30 10 -21 0 -30 -5 -30 -16z"/>
<path d="M2914 3377 c2 -19 6 -39 10 -46 5 -8 0 -14 -13 -18 -22 -6 -29 -23
-10 -23 6 0 8 -7 5 -17 -9 -23 15 -103 31 -103 7 0 13 6 13 13 0 6 6 3 12 -7
8 -15 8 -21 0 -24 -15 -5 -16 -62 -2 -62 6 0 10 -9 10 -21 0 -11 5 -30 11 -42
7 -12 12 -35 11 -51 -1 -23 2 -27 9 -16 7 11 9 5 7 -20 -2 -19 2 -36 7 -37 6
-1 9 5 7 13 -2 8 2 14 8 14 5 0 10 -11 10 -25 0 -14 -4 -25 -9 -25 -10 0 11
-66 27 -82 6 -6 8 -23 5 -39 -4 -19 1 -37 16 -58 12 -17 17 -31 10 -33 -14 -5
0 -38 17 -38 14 0 18 -12 15 -37 -1 -7 5 -13 14 -13 14 0 19 14 18 48 -1 6 8
12 18 12 17 0 46 36 41 53 -1 4 2 7 7 7 12 0 26 39 22 62 -1 12 3 15 18 11 16
-4 22 2 31 36 6 23 15 41 19 41 5 0 18 21 30 48 25 55 44 82 60 82 6 0 11 11
11 24 0 19 4 24 20 21 13 -2 20 2 20 11 0 10 12 14 41 14 32 0 40 3 35 15 -3
8 -1 15 5 15 6 0 7 4 4 10 -3 5 13 3 36 -6 36 -12 96 -14 358 -10 l316 5 -310
-10 c-193 -6 -324 -6 -348 0 -22 5 -39 5 -43 0 -3 -5 10 -10 28 -10 l33 -1
-29 -7 c-43 -9 1524 -6 1707 3 104 6 157 5 157 -1 0 -10 5189 -8 5199 2 2 3
-632 6 -1410 6 -778 1 -1679 5 -2004 8 -350 4 243 7 1457 7 1165 1 2045 -2
2042 -7 -3 -5 50 -10 118 -11 l123 -2 -125 -6 c-69 -3 314 -7 850 -7 551 -1
966 2 955 7 -19 8 -19 9 2 9 12 1 24 -5 27 -11 3 -7 5 1 3 19 -2 18 0 30 5 27
4 -3 8 -1 8 4 0 6 -7 13 -16 16 -21 8 -26 8 -20 -2 3 -4 -1639 -8 -3647 -8
-2009 1 -3562 4 -3452 7 118 4 39 5 -190 3 -214 -2 -720 -4 -1122 -6 -403 -1
-733 -5 -733 -8 0 -4 -14 -5 -30 -4 -19 1 -34 -4 -40 -14 -5 -10 -10 -12 -10
-7 0 6 5 16 12 23 23 23 -2 24 -36 1 -32 -22 -50 -60 -42 -91 1 -7 1 -10 -1
-5 -3 4 -9 7 -14 7 -6 0 -8 -4 -5 -9 3 -5 -1 -14 -10 -21 -8 -7 -13 -19 -10
-25 2 -7 -6 -18 -20 -25 -13 -8 -24 -21 -24 -30 0 -9 -9 -26 -20 -38 -11 -12
-20 -28 -20 -37 0 -8 -9 -15 -20 -15 -18 0 -20 -5 -14 -38 5 -33 2 -43 -20
-66 -14 -16 -31 -26 -38 -24 -8 3 -5 9 10 17 12 6 22 18 22 26 0 8 5 15 10 15
6 0 10 10 10 23 l0 22 -23 -25 c-34 -38 -67 -54 -81 -40 -8 8 -7 14 7 21 21
12 23 59 2 59 -18 0 -38 37 -31 56 3 9 -3 42 -14 75 -11 33 -18 64 -15 70 4 5
1 9 -4 9 -6 0 -11 -5 -11 -12 0 -6 -3 -8 -7 -4 -10 10 -11 46 -1 46 4 0 8 14
8 30 0 17 -4 30 -10 30 -5 0 -10 14 -10 31 0 22 -5 32 -20 36 -11 3 -20 10
-20 15 0 5 5 6 10 3 11 -7 13 24 4 49 -3 9 -13 16 -21 16 -8 0 -11 -4 -8 -10
3 -5 1 -10 -4 -10 -15 0 -14 67 0 72 8 3 6 10 -5 21 -11 11 -16 29 -14 48 2
19 -2 34 -9 36 -8 3 -11 -6 -9 -30z"/>
<path d="M7970 2877 c-36 -17 -50 -33 -50 -57 0 -12 -4 -18 -10 -15 -5 3 -10
-1 -10 -10 0 -9 5 -13 10 -10 6 3 10 1 10 -4 0 -6 6 -11 14 -11 10 0 16 13 18
42 3 36 6 42 28 43 14 1 29 -3 33 -9 6 -8 10 -7 14 2 7 18 23 4 23 -20 0 -14
5 -18 15 -14 13 5 15 -56 12 -499 -1 -278 1 -505 6 -505 4 0 7 225 7 500 0
499 0 501 -22 530 -12 17 -30 30 -40 30 -10 0 -18 5 -18 10 0 12 -8 12 -40 -3z"/>
<path d="M4335 2875 c-5 -2 -23 -6 -38 -9 -15 -4 -25 -11 -22 -17 4 -5 3 -8
-2 -7 -10 3 -73 -19 -73 -25 0 -3 8 -4 17 -3 10 0 19 -7 21 -16 2 -10 -1 -18
-7 -18 -6 0 -8 7 -4 16 5 15 3 14 -21 -1 -15 -10 -29 -15 -33 -11 -3 3 -1 6 5
6 7 0 12 5 12 12 0 7 -7 5 -18 -5 -13 -12 -18 -29 -16 -58 1 -23 -1 -38 -4
-32 -10 15 -40 12 -46 -4 -3 -8 -1 -11 4 -8 6 3 10 1 10 -4 0 -6 -6 -11 -14
-11 -7 0 -16 -10 -19 -22 -7 -24 9 -106 23 -123 13 -15 18 -936 5 -932 -6 2
-12 170 -15 463 l-5 459 -3 -475 c-2 -417 0 -478 14 -498 8 -12 21 -22 27 -22
7 0 3 7 -7 15 -11 8 -15 15 -8 15 6 0 17 -9 25 -21 9 -13 17 -16 22 -10 3 6
14 11 23 10 14 0 13 -2 -3 -9 -13 -6 -15 -9 -5 -9 8 0 29 11 45 24 l30 25 2
255 c1 156 -2 255 -7 255 -6 0 -10 5 -10 11 0 5 5 7 10 4 6 -3 10 -1 10 4 0 6
-4 11 -10 11 -5 0 -10 5 -10 11 0 5 4 8 9 4 5 -3 12 -1 16 5 3 5 17 10 31 10
15 0 24 6 24 15 0 13 51 15 395 17 217 1 403 2 413 2 12 1 16 -5 14 -22 -3
-18 1 -23 15 -20 10 2 18 10 18 18 1 24 15 40 31 33 8 -3 13 -11 11 -17 -6
-16 12 -48 24 -41 5 4 9 1 9 -4 0 -7 7 -7 20 1 26 17 25 25 -5 32 -22 6 -24 9
-15 27 9 15 8 24 -1 35 -9 11 -7 14 15 14 22 0 26 4 25 28 0 15 -3 22 -5 16
-6 -15 -44 -6 -44 10 0 7 7 21 16 32 14 18 15 18 8 -6 -6 -22 -5 -23 9 -8 14
14 15 31 8 125 l-9 108 2 -92 c1 -86 -6 -105 -27 -78 -4 6 -5 -1 -2 -15 11
-51 21 -50 -471 -51 -295 0 -463 -4 -471 -11 -10 -8 -9 -15 2 -31 17 -24 20
-61 5 -52 -6 4 -8 11 -5 16 4 5 -4 9 -17 9 -13 0 -29 5 -36 12 -9 9 -12 9 -12
0 0 -7 -7 -12 -15 -12 -8 0 -15 5 -15 11 0 5 -4 8 -9 5 -16 -10 -21 24 -21
150 0 68 -4 124 -9 124 -4 0 -11 -56 -15 -124 -7 -120 -7 -126 16 -156 16 -23
29 -30 45 -27 20 4 33 -9 33 -31 0 -4 -18 -7 -40 -8 -34 0 -40 3 -41 20 0 20
-1 20 -10 -2 -5 -14 -6 -112 -1 -242 4 -120 4 -216 1 -214 -4 2 -4 -16 -2 -41
6 -45 -3 -102 -14 -91 -3 3 -4 31 -3 63 2 32 2 131 1 221 -4 547 -2 603 32
674 20 43 47 64 47 37 0 -5 5 -7 11 -3 6 3 15 0 20 -7 7 -11 9 -10 9 4 0 9 -4
17 -10 17 -5 0 -2 9 8 20 52 61 75 80 95 80 13 0 17 3 10 8 -6 4 161 7 370 7
l382 -1 -364 3 c-277 3 -367 6 -373 16 -6 9 -12 9 -28 0 -25 -17 -26 -17 -26
6 0 16 5 19 27 14 15 -3 30 0 34 7 9 15 3 21 -24 23 -31 2 -25 13 12 22 58 14
88 13 104 -4 14 -14 54 -16 323 -16 271 0 309 -2 323 -17 15 -14 15 -17 1 -22
-9 -3 -157 -6 -330 -6 -272 0 -314 2 -314 15 0 10 -10 15 -34 15 -39 0 -61
-19 -24 -21 23 -1 23 -1 -2 -9 -14 -5 144 -8 357 -7 327 2 380 0 368 -12 -12
-12 -8 -17 22 -32 20 -10 40 -16 46 -12 6 3 7 2 4 -4 -8 -12 14 -63 27 -63 4
0 6 12 2 28 -5 27 -5 27 6 3 10 -19 9 -25 -6 -36 -9 -7 -13 -16 -8 -19 5 -3
14 0 19 7 18 22 22 46 10 50 -9 3 -8 9 3 22 14 17 13 18 -2 12 -22 -8 -37 31
-17 44 8 5 15 4 17 -1 7 -18 28 -10 50 19 l21 29 -22 20 c-38 34 -66 45 -83
31 -11 -9 -12 -15 -2 -28 10 -13 9 -13 -7 1 -15 14 -16 20 -5 33 15 18 12 23
-21 32 -23 6 -843 14 -864 8z"/>
<path d="M10506 2868 c4 -6 17 -8 29 -6 19 4 24 0 29 -24 3 -16 10 -27 15 -24
5 4 12 -2 14 -11 2 -10 3 -2 1 17 l-4 35 15 -28 c12 -20 13 -32 5 -47 -7 -13
-10 -82 -8 -190 2 -110 -1 -169 -7 -166 -5 2 -9 11 -9 20 2 13 -1 14 -13 5
-12 -11 -11 -15 7 -33 18 -18 22 -19 30 -6 7 12 12 12 22 2 13 -13 84 -17 92
-4 2 4 145 7 318 6 172 0 320 3 328 7 8 5 -156 9 -365 9 l-380 0 2 195 c3 190
2 195 -20 221 -17 20 -34 27 -65 29 -25 1 -39 -2 -36 -7z"/>
<path d="M7901 2295 c0 -295 3 -495 10 -520 5 -22 11 -44 12 -50 15 -53 100
-155 116 -139 3 3 -1 9 -8 13 -10 7 -8 12 8 23 20 14 20 15 -16 14 -34 -1 -38
1 -35 21 2 13 -1 31 -7 40 -8 14 -9 10 -5 -17 5 -27 4 -32 -6 -24 -6 7 -14 31
-16 55 -4 41 -24 99 -34 99 -3 0 -4 199 -2 442 2 253 -1 460 -7 483 -6 27 -9
-117 -10 -440z"/>
<path d="M5337 2736 c-3 -8 -21 -17 -39 -22 l-33 -7 28 -9 c22 -8 27 -15 25
-40 -1 -16 -6 -32 -10 -34 -12 -7 -10 -104 2 -104 11 0 15 -872 4 -883 -4 -3
-12 0 -19 7 -10 9 -12 64 -11 219 0 114 -3 207 -7 207 -4 0 -7 -100 -7 -222 1
-219 -4 -274 -21 -246 -6 9 -9 9 -9 1 0 -6 5 -15 10 -18 6 -4 8 -10 5 -15 -7
-12 32 -36 70 -44 24 -5 36 -1 58 19 15 14 27 30 27 35 0 4 3 15 6 24 3 9 1
16 -5 16 -6 0 -11 -9 -11 -20 0 -11 -5 -20 -11 -20 -7 0 -9 10 -7 25 3 14 1
25 -3 25 -5 0 -9 7 -9 15 0 8 5 15 10 15 6 0 11 156 12 443 l3 442 5 -440 c3
-242 6 -433 8 -425 5 33 7 938 1 934 -3 -1 -6 10 -6 26 0 16 -8 47 -18 70 -18
41 -38 52 -48 26z m27 -68 c-1 -35 -3 -278 -3 -540 -1 -312 -4 -478 -11 -478
-7 0 -10 151 -10 434 0 287 -4 437 -10 441 -12 7 -10 74 2 81 4 3 8 23 8 45 0
34 13 79 24 79 2 0 2 -28 0 -62z"/>
<path d="M12587 2598 c-2 -7 -4 -15 -3 -18 0 -3 -9 -16 -21 -30 -13 -13 -23
-29 -23 -34 0 -6 -4 -5 -9 3 -7 10 -34 13 -115 12 -69 -1 -106 2 -106 8 0 6
-5 11 -11 11 -6 0 -9 -9 -6 -20 6 -22 -8 -28 -16 -7 -3 6 -6 2 -6 -11 -1 -22
1 -23 46 -17 26 3 53 11 61 17 9 8 16 9 20 1 10 -15 92 -22 92 -7 0 6 7 11 15
11 8 0 15 -6 15 -13 0 -6 8 -11 18 -10 14 1 17 -9 20 -66 2 -52 6 -68 17 -68
9 0 15 10 16 28 0 15 2 71 4 125 4 94 2 111 -8 85z"/>
<path d="M4213 2543 c-16 -33 -17 -165 -3 -179 6 -6 12 -28 13 -50 2 -34 5
-39 28 -42 18 -2 29 3 33 15 4 9 4 14 0 10 -10 -10 -35 13 -28 25 4 6 0 14 -7
19 -8 5 -9 9 -3 9 8 0 12 36 13 110 2 100 0 110 -16 110 -10 0 -24 -12 -30
-27z"/>
<path d="M6077 2417 c2 -4 -14 -5 -37 -1 -31 5 -40 4 -38 -7 3 -13 -1 -14 -57
-18 -30 -2 -93 -47 -81 -58 3 -3 14 5 24 18 l19 23 7 -22 c5 -15 15 -22 32
-22 21 0 24 -4 20 -25 -3 -14 0 -25 5 -25 5 0 9 -5 9 -11 0 -6 -6 -9 -12 -6
-7 2 -12 11 -12 19 1 11 -5 14 -18 10 -18 -4 -18 -6 -4 -21 11 -10 35 -16 71
-16 31 -1 50 2 43 7 -15 9 -17 9 47 13 41 3 44 2 15 -4 -21 -4 50 -9 175 -12
l210 -4 40 -30 c22 -16 34 -22 26 -12 -12 15 -11 17 7 17 16 0 19 -5 14 -22
-5 -21 -4 -22 11 -9 15 12 17 11 18 -5 5 -142 2 -564 -4 -564 -4 0 -6 124 -5
275 2 151 0 275 -5 275 -4 0 -5 -12 -1 -27 4 -19 3 -24 -4 -14 -7 9 -12 10
-16 2 -4 -6 -2 -11 3 -11 8 0 11 -78 11 -240 0 -171 -3 -240 -11 -240 -8 0 -8
-4 0 -14 7 -8 11 -20 10 -28 -3 -25 1 -39 10 -34 5 4 11 2 13 -4 2 -7 13 -6
30 2 l28 13 0 234 c0 211 2 235 18 247 23 18 30 17 35 -3 3 -10 5 1 6 24 0 23
-3 45 -9 48 -5 3 -10 11 -10 18 0 6 7 2 15 -9 12 -16 14 -17 15 -2 0 9 7 24
16 32 19 19 9 40 -16 33 -13 -3 -17 0 -13 10 3 8 14 13 24 10 10 -3 28 2 40
11 12 8 19 10 15 4 -6 -9 -1 -9 18 0 14 6 26 14 26 17 0 3 35 5 77 4 282 -9
401 -8 380 4 -20 11 -19 12 15 10 21 -1 38 -5 38 -9 0 -5 -4 -8 -10 -8 -16 0
-12 -20 6 -27 9 -3 20 0 25 8 8 12 10 12 18 0 5 -8 16 -11 25 -8 20 8 21 27 1
27 -8 0 -15 5 -15 10 0 13 63 8 72 -5 14 -18 8 -25 -18 -25 -17 0 -28 -6 -31
-20 -6 -24 -19 -26 -27 -5 -7 20 -26 19 -26 -1 0 -8 4 -12 10 -9 6 4 7 -1 3
-11 -5 -13 -2 -16 8 -12 12 5 14 -40 14 -303 l0 -309 27 -25 c27 -25 44 -33
34 -16 -3 5 6 12 21 16 16 3 31 12 35 18 6 9 8 9 8 0 0 -7 3 -13 8 -13 4 0 6
21 5 48 l-1 47 7 -40 c5 -22 9 -33 10 -25 4 35 0 557 -5 580 -4 20 -3 22 5 10
10 -13 11 -13 11 0 0 30 -12 60 -22 54 -6 -4 -8 3 -3 17 5 19 4 21 -4 9 -6 -8
-11 -10 -11 -5 0 6 -4 4 -9 -3 -7 -11 -9 -10 -14 3 -4 9 -3 14 2 11 7 -5 21
15 21 29 0 2 -16 12 -35 24 -26 15 -33 25 -28 38 6 16 4 16 -17 -2 l-23 -20
12 22 c7 14 8 24 1 28 -5 3 -10 3 -10 -1 0 -4 -6 -1 -12 7 -15 18 -72 44 -63
29 7 -11 24 -11 -314 -11 -139 0 -251 -3 -247 -6 8 -9 -14 -33 -30 -33 -7 0
-12 9 -11 19 0 11 5 17 10 14 4 -2 14 0 20 6 9 7 99 9 259 8 145 -1 244 2 240
7 -3 5 5 6 18 3 13 -3 19 -3 14 1 -5 4 -109 5 -232 2 -124 -3 -222 -1 -222 4
0 7 -20 5 -75 -8 -33 -8 -55 -18 -50 -25 2 -4 -8 -14 -23 -22 -15 -7 -35 -21
-45 -31 -10 -10 -22 -16 -28 -13 -5 4 -9 1 -9 -5 0 -15 32 -8 47 10 6 8 15 12
18 8 10 -9 -21 -39 -36 -36 -7 2 -17 -6 -23 -17 -14 -26 -30 -25 -54 3 -11 12
-31 22 -45 22 -14 0 -29 5 -32 10 -4 6 17 10 55 10 58 0 61 1 58 23 -2 14 -9
21 -20 21 -10 -1 -15 2 -12 7 3 5 -12 17 -33 25 -30 13 -82 17 -264 18 -125 0
-225 -2 -222 -7z m410 -27 c5 -20 27 -25 58 -14 13 5 14 8 3 15 -10 7 -9 9 3
9 21 0 32 -27 16 -37 -6 -4 -46 -8 -87 -10 -41 -1 -81 -3 -88 -4 -18 -3 17
-39 38 -39 9 0 25 -6 35 -14 17 -12 15 -14 -23 -18 -38 -3 -47 1 -43 25 1 8
-3 9 -94 12 -38 1 -86 3 -105 5 l-35 3 40 6 c31 5 39 10 37 24 -3 15 6 17 71
17 40 0 77 4 83 9 5 5 27 11 49 14 22 2 -58 3 -177 3 -120 -1 -210 2 -200 6 9
4 106 7 215 7 191 1 199 0 204 -19z m815 -14 c4 2 9 0 13 -6 3 -5 -6 -16 -22
-22 -28 -12 -28 -12 17 -16 65 -5 75 -22 13 -22 -30 0 -57 -6 -65 -13 -7 -8
-25 -16 -39 -19 -22 -4 -26 -1 -24 16 3 21 -1 21 -147 21 -148 -1 -150 0 -159
23 -5 13 -9 25 -9 28 0 2 69 4 153 4 83 0 158 4 165 9 7 4 32 5 55 0 23 -4 45
-5 49 -3z m221 -193 l-4 -28 15 30 c17 35 21 19 6 -21 -6 -15 -12 -128 -13
-253 -1 -124 -3 -216 -5 -203 -2 12 -10 22 -18 22 -12 0 -14 32 -14 200 1 125
5 202 12 206 5 4 7 21 3 40 -4 26 -2 34 8 34 10 0 13 -9 10 -27z"/>
<path d="M9228 2413 c0 -5 -2 -15 -2 -23 -1 -8 -7 -14 -13 -13 -23 5 -25 -37
-3 -65 41 -52 37 -51 473 -52 318 0 415 -3 440 -13 18 -8 36 -16 42 -18 5 -2
8 -13 7 -24 -2 -15 -1 -17 6 -6 13 18 19 3 17 -46 -2 -43 8 -56 19 -27 3 9 6
23 5 32 0 14 -2 13 -9 -3 -9 -20 -9 -20 -9 1 -1 11 4 25 9 30 18 18 -20 72
-55 80 -27 6 -28 8 -10 14 13 5 4 8 -27 7 -26 -1 -45 -3 -43 -7 6 -10 -787 -1
-800 10 -7 6 -20 7 -30 4 -17 -7 -17 -6 0 20 10 15 15 29 12 32 -3 3 -8 -4
-12 -15 -3 -12 -11 -21 -16 -21 -17 0 -5 54 15 71 11 9 16 21 12 27 -8 13 -25
16 -28 5z"/>
<path d="M2733 2386 c-28 -24 -28 -26 -28 -136 0 -107 1 -112 25 -130 51 -39
215 -40 249 -1 22 25 31 27 31 6 0 -21 32 -35 53 -24 13 8 17 24 17 69 0 41 4
60 13 62 6 0 19 2 27 3 8 1 21 -4 29 -9 11 -8 13 -8 7 2 -4 6 -3 12 2 12 5 0
12 -9 15 -20 3 -13 14 -20 30 -20 22 0 26 -4 25 -32 -1 -23 7 -38 27 -56 26
-22 35 -24 122 -20 l94 3 -2 -30 c-2 -40 9 -65 30 -65 27 0 50 23 55 55 2 17
5 32 5 35 1 3 32 5 71 4 38 0 67 3 65 7 -3 4 4 18 16 30 11 13 18 19 15 13
-13 -25 41 -44 127 -44 74 0 86 3 105 23 32 34 32 134 -1 165 -20 19 -35 22
-110 22 -76 0 -89 -3 -107 -22 l-20 -22 -20 22 c-11 12 -32 25 -46 28 -41 10
-144 -3 -163 -21 -17 -15 -19 -14 -24 5 -7 26 -38 26 -61 1 -14 -15 -17 -33
-14 -72 l3 -52 -42 -3 c-47 -3 -46 -4 -43 72 2 49 -22 79 -54 69 -24 -8 -28
-8 -111 1 -39 4 -71 1 -90 -7 -16 -7 -33 -12 -37 -11 -4 1 -5 -5 -2 -13 8 -19
3 -19 -32 0 -27 13 -88 13 -176 0 -24 -4 -28 -1 -28 20 0 25 1 25 95 25 59 0
95 4 95 10 0 7 -35 10 -97 8 -113 -3 -110 0 -105 -119 l4 -70 81 3 82 3 3 32
3 32 -68 3 c-62 3 -68 5 -71 26 -3 21 -1 22 86 22 101 0 102 -1 102 -74 0 -29
-7 -52 -21 -70 -19 -25 -25 -26 -113 -26 -133 0 -136 3 -136 138 0 59 4 112 8
118 16 25 56 34 151 34 106 0 108 -1 102 -47 -1 -7 3 -13 9 -13 17 0 12 57 -6
64 -9 3 -62 6 -119 6 -95 0 -106 -2 -132 -24z m557 -157 l5 -64 58 -3 57 -3 0
64 c0 47 4 66 14 70 25 10 33 -16 31 -98 l-1 -80 -75 -3 c-93 -4 -113 1 -127
33 -16 34 -15 128 0 143 22 22 33 6 38 -59z m384 59 c25 -11 28 -18 40 -105 2
-13 -1 -20 -7 -16 -5 3 -8 0 -5 -8 9 -28 -37 -49 -107 -49 l-67 0 4 -37 c3
-35 1 -38 -22 -38 -24 0 -25 3 -27 60 -2 33 0 88 3 121 4 50 9 63 27 72 30 14
130 15 161 0z m276 -8 c16 -16 20 -33 20 -79 0 -80 -15 -91 -127 -91 -100 0
-113 12 -113 102 0 76 17 88 122 88 65 0 81 -3 98 -20z"/>
<path d="M3786 2247 c-12 -9 -17 -23 -14 -47 l3 -35 75 0 75 0 3 33 c2 18 -2
40 -9 48 -15 18 -108 19 -133 1z"/>
<path d="M5895 2337 c-6 -13 -14 -17 -30 -13 -18 5 -27 -1 -42 -27 -21 -37
-19 -67 5 -68 11 0 12 -2 5 -6 -7 -2 -13 -11 -13 -19 0 -8 -4 -14 -10 -14 -6
0 -10 -106 -10 -297 0 -163 -2 -294 -4 -292 -3 2 -6 136 -7 297 -1 210 1 296
10 305 13 13 15 31 2 23 -5 -4 -11 0 -14 6 -8 21 -9 -11 -14 -317 -4 -276 0
-371 15 -349 10 14 52 15 52 2 0 -6 12 -8 33 -4 23 4 28 3 17 -4 -12 -8 -13
-10 -1 -10 8 0 12 -2 10 -5 -3 -2 -20 -1 -37 4 -19 6 -32 6 -32 1 0 -5 -8 -7
-17 -4 -15 5 -15 3 1 -10 23 -18 61 -22 50 -5 -4 7 0 9 12 5 11 -3 26 -1 34 4
13 8 14 46 11 262 -1 139 -5 256 -8 261 -2 4 1 7 6 7 7 0 12 -71 13 -212 l2
-213 6 265 c5 250 4 293 -7 262 -5 -13 -23 -7 -23 9 0 6 5 7 12 3 8 -5 9 -2 5
10 -5 13 -3 15 12 7 14 -8 23 -5 39 14 12 14 27 25 34 25 6 0 9 2 6 5 -9 10
-58 -18 -58 -32 0 -8 -4 -12 -10 -8 -5 3 -7 12 -3 20 6 18 -13 20 -21 3 -3 -7
-4 -4 -1 8 3 12 -1 27 -10 34 -11 9 -12 16 -5 25 7 8 7 21 1 36 -8 22 -10 22
-16 6z m-24 -211 c5 3 9 -93 9 -235 0 -154 4 -241 10 -241 6 0 10 -9 10 -20 0
-15 -7 -20 -25 -20 -29 0 -27 -22 -26 265 0 253 1 274 8 257 2 -6 9 -10 14 -6z"/>
<path d="M9363 2059 c-6 -6 -9 -17 -7 -24 3 -8 -4 -10 -24 -7 -23 3 -35 -4
-66 -38 -57 -63 -74 -112 -71 -198 1 -40 5 -76 9 -79 3 -3 6 -1 6 5 0 7 5 12
10 12 7 0 7 -6 0 -19 -7 -15 -6 -23 5 -34 8 -8 12 -17 10 -19 -3 -2 8 -17 24
-32 l29 -28 14 21 c13 22 28 28 28 12 0 -5 -7 -16 -15 -25 -13 -13 -12 -17 11
-35 15 -12 34 -21 43 -21 10 0 21 -4 27 -9 14 -13 84 -1 84 15 0 8 -7 14 -16
14 -8 0 -12 -4 -9 -10 3 -5 2 -10 -4 -10 -5 0 -13 5 -17 11 -4 7 -21 9 -46 5
-26 -4 -37 -3 -33 4 4 6 3 10 -2 9 -34 -6 -42 10 -17 35 20 20 8 39 -19 32
-25 -6 -47 10 -47 35 0 11 -5 19 -11 19 -6 0 -8 7 -5 16 3 8 2 12 -3 9 -24
-14 -43 75 -28 130 3 11 6 26 6 34 1 9 9 11 27 7 25 -7 25 -6 10 9 -13 14 -19
15 -31 5 -8 -7 -15 -8 -15 -3 0 13 40 49 40 37 0 -5 5 -1 11 9 5 9 7 22 4 27
-4 6 5 5 20 -2 32 -14 58 3 36 25 -11 10 -13 9 -8 -5 4 -12 1 -18 -9 -18 -8 0
-12 5 -9 10 3 6 1 10 -6 10 -10 0 -10 3 -1 12 8 8 18 9 34 1 26 -12 48 3 48
33 0 11 5 14 16 10 9 -3 19 -6 24 -6 5 0 11 -8 13 -17 4 -17 5 -17 6 0 1 10
-10 21 -25 27 -32 13 -38 12 -51 -1z"/>
<path d="M6710 1841 c3 -113 9 -213 13 -221 5 -8 1 -6 -7 4 -12 15 -17 16 -18
5 -1 -8 -5 83 -8 201 l-6 215 -2 -220 c-2 -176 1 -225 12 -241 12 -16 12 -23
1 -38 -8 -10 -19 -15 -25 -11 -8 5 -6 11 5 19 14 10 13 12 -7 11 -13 -1 -29
-4 -35 -8 -6 -4 -19 -4 -30 0 -16 6 -16 5 -4 -11 8 -10 23 -15 33 -13 11 3 15
1 11 -5 -10 -18 67 -1 88 18 21 19 26 80 8 86 -9 3 -11 61 -10 205 2 157 -1
202 -11 205 -11 5 -12 -34 -8 -201z"/>
<path d="M9500 1962 c23 -4 24 -5 5 -13 l-20 -8 20 0 c17 -1 17 -3 5 -11 -10
-6 101 -10 321 -10 290 0 338 2 343 15 3 8 12 15 21 15 8 0 15 4 15 10 0 6
-136 9 -367 8 -203 -1 -357 -3 -343 -6z"/>
<path d="M11459 1793 c-6 -15 -9 -37 -6 -49 2 -12 -2 -21 -9 -21 -7 0 -10 7
-7 16 4 14 3 14 -5 1 -6 -8 -8 -18 -5 -23 3 -5 0 -7 -8 -5 -8 3 -27 -2 -44
-10 -25 -13 -69 -16 -260 -16 l-230 1 212 -6 c116 -3 214 -8 216 -11 3 -3 -81
-4 -186 -2 -106 1 -235 -1 -287 -5 -68 -6 1 -8 241 -9 282 0 336 2 335 14 -1
7 -9 18 -17 23 -15 9 -15 9 18 13 14 2 25 -5 33 -22 9 -20 8 -23 -3 -19 -10 4
-13 -2 -8 -21 3 -18 6 -21 9 -10 2 10 9 15 18 11 10 -4 12 0 8 11 -3 9 0 23 7
32 10 13 10 17 -2 26 -11 7 -11 11 -1 15 6 2 12 12 13 21 0 14 2 13 8 -3 7
-16 9 -14 14 15 4 18 5 35 2 38 -3 3 -5 -2 -5 -11 0 -9 -4 -17 -10 -17 -5 0
-10 9 -10 19 0 32 -19 34 -31 4z"/>
<path d="M5544 1739 c-62 -30 -72 -152 -17 -196 15 -13 35 -23 43 -23 13 0 13
1 0 11 -12 9 -11 10 8 6 20 -5 26 2 24 24 -1 4 6 6 15 5 10 0 20 9 24 24 6 21
7 22 8 4 1 -11 -8 -30 -19 -42 -12 -12 -17 -22 -12 -22 45 0 64 128 24 156
-12 8 -22 23 -22 33 0 11 -10 21 -22 25 -28 7 -28 7 -54 -5z"/>
<path d="M7733 1733 c-3 -7 -9 -11 -13 -8 -17 11 -44 -38 -46 -83 -2 -82 50
-141 106 -120 32 12 61 38 55 49 -3 4 -1 10 5 14 14 8 13 65 -1 65 -6 0 -9 7
-5 15 6 17 -13 65 -26 65 -5 0 -4 -8 1 -18 6 -10 9 -43 9 -73 -1 -30 2 -60 5
-66 5 -7 1 -11 -10 -11 -10 1 -29 -1 -43 -5 -23 -6 -23 -5 2 5 30 13 45 38 23
38 -9 0 -15 10 -15 24 0 14 -6 26 -12 29 -7 2 -3 2 9 1 14 -3 23 2 25 13 4 21
-13 63 -25 63 -5 0 -6 4 -3 8 2 4 -5 8 -16 8 -11 0 -22 -6 -25 -13z"/>
<path d="M11544 1682 c0 -45 -1 -47 -26 -44 -23 3 -27 0 -25 -22 1 -14 -2 -24
-8 -23 -5 1 -9 8 -7 15 2 6 -2 12 -9 12 -7 0 -10 -11 -7 -30 4 -25 2 -29 -13
-25 -9 3 -20 1 -24 -5 -3 -5 -16 -10 -28 -9 -21 0 -21 1 -2 9 12 5 -94 8 -255
7 -250 -1 -256 -2 -67 -4 296 -5 270 -22 -35 -25 -134 -1 -255 -2 -270 -2 -16
-1 -28 -3 -28 -6 0 -3 146 -5 325 -5 178 0 317 3 307 6 -10 3 8 9 41 13 38 5
67 15 86 32 16 13 34 24 40 24 13 0 32 35 23 44 -3 4 -5 22 -4 41 2 18 -1 36
-6 39 -5 3 -9 -15 -8 -42z"/>
<path d="M10126 1703 c-4 -5 -150 -11 -324 -15 -174 -3 -332 -9 -350 -11 -37
-6 -55 -16 -26 -15 11 0 35 -2 54 -6 30 -5 31 -4 10 4 -20 8 -16 8 20 4 25 -3
56 -8 70 -11 14 -4 131 -8 260 -10 170 -2 231 0 220 8 -11 8 -6 9 23 4 41 -7
77 1 77 16 0 6 -8 5 -21 -1 -11 -6 -25 -9 -32 -6 -9 3 -8 5 1 5 7 1 10 6 7 11
-3 6 3 10 14 10 12 0 21 5 21 10 0 12 -14 13 -24 3z"/>
<path d="M8160 1680 l-25 -8 25 -1 c15 -1 20 -4 13 -9 -6 -4 202 -7 461 -7
501 0 515 -1 501 -46 -3 -9 -1 -20 4 -23 6 -4 8 -13 4 -21 -3 -8 -1 -15 5 -15
19 0 21 29 4 68 l-17 40 -83 6 c-46 4 -256 6 -468 5 -211 -1 -387 1 -391 4 -3
4 209 5 472 4 374 -2 479 -5 483 -15 2 -6 8 -9 13 -6 6 3 2 12 -8 19 -15 11
-109 14 -493 14 -261 -1 -486 -4 -500 -9z"/>
<path d="M4095 1340 c-4 -6 1486 -10 4267 -10 2775 0 4268 4 4258 10 -21 13
-8517 13 -8525 0z"/>
<path d="M6362 1313 c1121 -2 2955 -2 4075 0 1121 1 204 2 -2037 2 -2241 0
-3158 -1 -2038 -2z"/>
<path d="M5010 1025 c-10 -12 -10 -19 -2 -27 15 -15 15 -51 0 -66 -15 -15 17
-29 35 -14 6 5 29 12 50 14 28 3 36 1 33 -9 -3 -7 -1 -13 5 -13 14 0 19 18 22
75 l2 50 -66 3 c-50 2 -69 -1 -79 -13z"/>
<path d="M8643 1033 c-9 -3 -13 -26 -13 -66 0 -38 4 -57 9 -49 5 8 24 13 47
12 64 -3 64 -3 64 45 0 25 3 45 8 45 4 0 7 -20 7 -45 0 -55 19 -60 23 -6 4 54
-16 71 -81 70 -29 0 -58 -3 -64 -6z"/>
<path d="M11290 1003 c0 -28 3 -34 10 -23 11 17 10 17 14 -57 2 -29 -1 -53 -6
-53 -4 0 -9 19 -9 43 l-2 42 -7 -45 c-8 -49 1 -63 35 -55 11 3 14 2 8 -1 -18
-8 -16 -24 2 -24 7 0 18 -7 23 -17 8 -14 12 -12 24 12 l15 28 18 -26 c9 -15
22 -24 28 -20 6 4 51 10 99 13 48 4 90 9 93 12 4 3 7 15 8 27 1 11 6 21 11 21
5 0 7 2 4 5 -9 9 -38 -6 -38 -20 0 -7 -7 -16 -16 -19 -24 -9 -84 -7 -84 3 0 5
18 8 40 7 23 -1 43 1 46 6 3 4 -17 8 -45 8 -41 0 -51 -4 -56 -20 -8 -24 -47
-27 -65 -5 -10 12 -9 15 6 16 16 0 15 2 -4 10 -17 6 -30 4 -49 -8 -25 -16 -26
-16 -44 5 -10 13 -15 30 -12 37 3 8 1 15 -4 15 -5 0 -7 21 -3 50 6 50 -1 70
-27 70 -8 0 -13 -13 -13 -37z"/>
<path d="M7120 680 c0 -6 -69 -10 -187 -10 -125 0 -183 -4 -173 -10 10 -7 -29
-10 -120 -10 -91 0 -130 3 -120 10 10 6 -400 10 -1167 10 -650 0 -1190 3
-1200 6 -15 5 -15 4 -3 -5 12 -9 10 -11 -12 -11 -15 0 -30 -4 -33 -10 -4 -6
755 -10 2192 -10 1248 0 2192 4 2184 9 -11 7 -11 9 0 14 8 3 -246 6 -563 6
-379 1 -578 -2 -578 -9 0 -6 -44 -10 -112 -10 -62 0 -108 4 -103 8 14 10 17
32 5 32 -5 0 -10 -4 -10 -10z"/>
<path d="M9515 683 c61 -3 85 -7 75 -13 -12 -8 -11 -10 5 -10 17 0 17 -2 5
-10 -10 -6 523 -10 1513 -10 938 0 1526 4 1522 9 -3 5 5 12 17 14 13 2 -667 5
-1509 6 -1015 1 -1533 4 -1533 11 0 6 -36 9 -92 8 l-93 -2 90 -3z"/>
<path d="M8695 671 c-23 -7 -25 -9 -10 -12 11 -1 -9 -5 -45 -9 -36 -4 133 -6
375 -6 242 0 400 2 350 5 l-90 5 90 6 c52 4 -41 7 -225 8 -173 1 -337 4 -365
6 -27 3 -63 1 -80 -3z"/>
<path d="M8629 563 c-1 -5 -1 -12 0 -16 1 -4 -6 -7 -16 -5 -10 2 -27 -11 -41
-32 -14 -19 -22 -27 -19 -17 4 9 2 17 -3 17 -6 0 -9 -15 -7 -34 1 -19 5 -32
10 -29 4 2 7 0 7 -6 0 -5 -13 -12 -30 -16 -29 -6 -42 -23 -17 -22 36 1 57 -4
52 -13 -4 -7 -13 -6 -27 1 -28 15 -42 -1 -33 -41 5 -24 10 -29 16 -19 7 12 9
11 9 -1 0 -13 1 -13 10 0 5 8 10 13 11 10 5 -28 4 -50 -3 -50 -4 0 -8 -32 -8
-71 0 -44 4 -68 10 -64 13 8 13 -11 0 -35 -7 -12 -7 -26 0 -42 10 -23 10 -23
7 3 -4 32 13 50 36 37 18 -10 23 -38 8 -38 -5 0 -17 -7 -26 -16 -24 -24 -1
-47 39 -39 23 5 27 4 16 -4 -13 -9 -13 -11 3 -11 9 0 17 5 17 11 0 5 5 7 10 4
6 -3 10 1 10 9 0 9 -6 16 -12 16 -7 1 -2 7 12 15 14 8 19 14 11 15 -8 0 -11 6
-7 16 5 12 1 14 -15 9 -14 -5 -19 -3 -15 3 3 6 3 13 -2 16 -4 2 -9 48 -10 100
-3 99 -2 101 41 97 12 -2 17 5 17 23 0 18 -6 26 -17 27 -15 0 -15 2 2 9 11 5
14 9 6 9 -11 1 -11 4 -1 16 10 12 10 15 -2 15 -19 0 -63 -39 -71 -63 -9 -25
-27 -12 -27 19 0 17 6 24 19 24 16 0 31 18 31 36 0 2 -12 4 -27 4 -18 0 -24 3
-15 8 7 5 14 19 17 32 6 32 15 38 15 10 0 -13 3 -21 6 -17 6 6 13 97 7 97 -1
0 -4 -3 -4 -7z"/>
<path d="M6640 533 c1 -5 7 -19 14 -32 12 -22 11 -27 -8 -43 -11 -9 -16 -17
-9 -18 8 0 13 -27 16 -82 l3 -83 2 83 c2 75 4 82 22 82 20 0 20 -5 18 -167 -2
-127 -6 -167 -16 -171 -7 -2 -16 5 -19 17 -3 12 -10 21 -15 21 -5 0 -7 -4 -3
-9 3 -5 1 -12 -5 -16 -14 -9 -9 -52 7 -52 6 0 10 4 8 8 -6 9 24 21 36 13 21
-12 8 -34 -20 -34 -17 0 -33 -4 -36 -10 -3 -6 1 -7 10 -4 8 4 22 1 30 -6 9 -7
18 -10 21 -7 15 14 19 86 17 247 -3 226 -5 245 -23 246 -40 4 -42 7 -5 14 l40
7 -42 2 c-24 0 -43 -2 -43 -6z"/>
<path d="M7190 524 c0 -10 5 -12 13 -8 7 5 6 0 -3 -11 -8 -10 -10 -16 -3 -12
6 4 14 3 18 -3 3 -6 0 -13 -8 -16 -12 -4 -15 -30 -15 -127 0 -67 2 -114 5
-104 4 15 7 16 20 6 12 -11 14 -6 11 37 -2 38 0 49 12 49 11 0 15 -10 13 -33
-2 -49 -12 -84 -23 -77 -6 3 -10 -4 -10 -17 -1 -23 -1 -23 -16 -3 -14 18 -15
14 -13 -60 1 -44 -2 -89 -6 -100 -8 -19 -8 -19 8 -3 9 9 17 26 17 37 0 12 5
21 10 21 14 0 12 -16 -5 -50 -9 -17 -11 -30 -5 -30 5 0 10 6 10 13 0 8 4 7 10
-3 7 -11 10 -5 11 25 2 30 3 33 6 13 2 -16 9 -28 14 -28 6 0 7 4 4 10 -3 5 -2
17 3 26 8 14 12 12 28 -15 10 -17 22 -31 27 -31 4 0 5 4 2 10 -3 6 1 7 9 4 9
-3 16 -12 16 -20 0 -20 31 -17 60 7 25 20 25 20 2 14 l-23 -7 23 24 c13 14 26
23 30 21 4 -2 5 4 1 13 -4 10 -2 15 3 11 6 -3 8 9 6 31 -3 30 -1 34 8 22 9
-12 11 -8 6 18 -4 23 -2 31 5 26 8 -5 10 3 5 27 -4 19 -7 51 -6 71 0 20 -4 39
-10 43 -5 3 -10 0 -10 -7 0 -9 -3 -9 -10 2 -6 10 -10 11 -10 3 0 -7 -4 -13
-10 -13 -5 0 -10 7 -10 15 0 8 9 15 20 15 26 0 25 6 -7 38 -15 15 -21 20 -15
11 11 -14 8 -18 -14 -23 -21 -6 -25 -12 -22 -31 3 -13 2 -24 -1 -23 -19 2 -19
-4 -1 -22 23 -23 27 -24 33 -7 2 6 3 4 2 -5 -2 -9 1 -18 5 -20 10 -4 19 -118
8 -118 -4 0 -8 6 -8 13 0 8 -4 7 -11 -3 -8 -12 -9 -9 -4 10 15 54 17 88 4 95
-9 6 -11 0 -6 -24 5 -23 3 -30 -5 -25 -7 5 -9 2 -5 -8 3 -9 2 -32 -3 -51 -5
-23 -4 -37 2 -39 6 -2 8 -17 4 -34 -6 -26 -11 -30 -41 -31 -19 -1 -38 4 -41 9
-4 6 2 8 15 3 22 -7 30 9 9 19 -7 4 -3 4 9 2 14 -2 20 0 17 9 -6 15 -36 15
-46 0 -10 -12 -28 12 -28 37 0 9 -4 20 -10 23 -5 3 -10 25 -10 48 0 48 31 107
61 114 15 4 17 8 8 19 -14 17 2 19 19 2 9 -9 12 -9 12 -1 0 7 -4 15 -10 18
-16 10 -12 43 8 54 15 9 15 10 -4 11 -11 0 -33 -14 -49 -30 -28 -29 -28 -30
-9 -45 18 -14 18 -15 -6 -11 -14 3 -29 5 -33 5 -5 1 -5 6 -1 13 14 22 3 101
-14 115 -16 11 -16 12 -1 13 9 0 19 11 21 24 4 22 1 24 -34 24 -27 1 -38 -3
-38 -14z"/>
<path d="M5810 422 c0 -4 12 -20 26 -35 l25 -28 -25 5 c-15 3 -35 8 -46 11
-14 5 -20 2 -20 -9 0 -9 5 -16 10 -16 6 0 10 -7 10 -15 0 -8 -5 -15 -12 -15
-6 0 -9 -2 -6 -5 13 -13 38 8 33 29 -2 11 -2 16 0 10 7 -13 65 -6 65 9 0 5 9
0 20 -13 11 -13 20 -33 20 -46 0 -18 -8 -26 -40 -35 -28 -8 -37 -15 -28 -21
14 -8 -8 -13 -49 -9 -13 1 -23 -3 -23 -9 0 -6 -4 -9 -9 -6 -4 3 -15 0 -23 -7
-17 -14 -41 -77 -29 -77 4 0 6 -13 3 -29 -5 -38 11 -66 49 -85 37 -18 59 -20
59 -6 0 6 8 10 18 8 12 -2 16 3 14 17 -2 17 -1 17 8 5 9 -13 14 -11 35 12 22
26 24 27 30 8 3 -11 4 -24 1 -29 -10 -15 26 -22 59 -12 17 5 23 10 14 10 -15
1 -15 6 -6 42 9 36 8 44 -6 54 -19 14 -23 65 -6 65 17 0 8 173 -10 194 -21 25
-23 14 -6 -27 18 -42 21 -82 5 -57 -5 8 -10 25 -10 37 0 12 -7 29 -16 37 -8 9
-13 20 -10 24 3 5 -21 7 -52 6 -51 -2 -53 -2 -17 5 l40 8 -47 2 c-27 0 -48 -2
-48 -7z"/>
<path d="M6085 421 c-3 -6 0 -11 7 -11 10 0 10 -2 -1 -9 -11 -7 -11 -9 0 -14
10 -4 10 -6 2 -6 -18 -1 -16 -22 4 -36 15 -11 15 -15 4 -29 -10 -12 -11 -19
-2 -30 8 -10 9 -16 1 -21 -12 -7 -14 -165 -2 -165 5 0 13 10 18 22 6 13 9 17
7 10 -2 -8 -3 -30 -3 -50 0 -27 -3 -33 -9 -22 -6 8 -7 19 -4 25 4 5 2 6 -2 2
-5 -4 -10 -13 -11 -20 -1 -7 -3 -19 -5 -27 -3 -11 6 -15 36 -15 l40 0 1 105
c1 132 9 177 35 191 16 8 26 7 46 -6 24 -16 25 -16 18 4 -3 12 -2 21 3 21 5 0
13 -15 16 -32 9 -43 19 -265 12 -258 -3 3 -8 57 -10 119 -3 63 -7 115 -9 117
-2 2 -4 -57 -4 -132 -1 -109 2 -133 12 -124 10 8 14 7 18 -2 3 -7 6 0 7 17 1
26 3 27 10 10 5 -11 9 -14 9 -7 1 7 5 11 11 7 5 -3 6 -13 3 -22 -4 -11 -3 -14
6 -9 9 6 12 39 10 120 -2 123 5 162 31 176 32 17 48 11 55 -21 5 -23 9 -28 16
-18 7 11 9 9 9 -8 0 -12 -5 -25 -11 -28 -6 -4 -9 -44 -7 -105 2 -54 6 -96 9
-94 4 2 9 -3 13 -11 7 -20 26 -19 26 1 0 8 -4 12 -10 9 -6 -3 -7 1 -3 10 5 13
7 14 14 3 6 -9 9 -6 10 12 0 14 3 19 6 13 8 -21 23 -15 23 8 0 15 -5 19 -15
15 -10 -4 -15 1 -15 14 0 11 -4 20 -10 20 -16 0 -11 112 6 135 15 19 15 18 13
-20 -4 -67 1 -125 10 -125 5 0 11 36 13 80 2 44 0 80 -3 80 -3 0 -4 15 -2 33
3 27 2 29 -7 12 -8 -16 -9 -13 -5 16 4 29 1 40 -20 59 -25 23 -25 23 -25 2 0
-13 -9 -23 -22 -28 -13 -4 -26 -12 -30 -18 -6 -8 -11 -6 -18 4 -6 10 -10 11
-10 3 0 -7 -5 -13 -12 -13 -22 0 15 28 52 39 31 10 32 10 5 7 -28 -4 -28 -3
-10 10 11 8 13 14 6 14 -7 0 -29 -16 -48 -35 -32 -32 -62 -48 -49 -26 7 11
-39 61 -56 61 -9 0 -9 -3 2 -10 13 -8 13 -10 -2 -10 -9 0 -20 5 -23 11 -5 6
-12 4 -21 -8 -13 -17 -14 -17 -7 2 6 18 5 18 -10 6 -24 -20 -21 -29 14 -36 17
-4 28 -9 25 -12 -3 -3 -18 -1 -34 5 -21 7 -33 7 -40 0 -6 -6 -19 -8 -29 -4
-15 6 -15 8 -3 16 13 8 12 10 -2 10 -10 0 -17 6 -15 13 3 15 -49 22 -58 8z"/>
<path d="M6885 423 c-29 -8 -62 -41 -68 -69 -3 -19 0 -24 17 -24 17 0 18 2 6
10 -13 8 -12 10 3 10 11 0 17 -8 18 -22 0 -13 3 -17 6 -10 2 6 9 12 14 12 6 0
7 -4 4 -10 -3 -5 -2 -10 4 -10 5 0 13 9 16 20 3 11 13 21 21 21 8 1 20 2 27 3
6 1 21 -2 31 -7 16 -8 18 -6 13 7 -4 10 -3 15 3 11 6 -3 7 -18 4 -32 -5 -17
-3 -24 4 -19 6 3 13 -2 15 -11 3 -13 5 -10 6 7 1 20 3 22 11 10 7 -11 10 -11
10 -2 0 7 4 11 9 8 10 -7 11 -236 1 -236 -4 0 -5 45 -2 100 3 55 1 100 -4 100
-15 0 -41 -20 -26 -20 6 0 12 -4 12 -9 0 -5 -8 -7 -19 -4 -13 3 -17 12 -15 26
2 12 2 17 -2 10 -3 -7 -21 -17 -40 -23 -20 -7 -31 -16 -27 -23 4 -7 0 -8 -12
-4 -9 4 -24 2 -31 -4 -8 -6 -14 -9 -14 -5 0 12 -57 -23 -63 -38 -3 -8 -4 -25
-1 -38 2 -12 2 -17 -2 -10 -10 20 -21 14 -21 -13 0 -13 3 -22 7 -20 4 3 11 -2
14 -11 3 -8 2 -12 -4 -9 -13 8 -13 3 5 -32 15 -30 45 -52 45 -33 0 6 5 10 11
10 6 0 9 -6 6 -14 -4 -11 2 -12 36 -4 57 12 69 24 54 49 -8 14 -19 18 -34 14
-12 -3 -25 0 -28 5 -4 6 -11 7 -17 4 -7 -5 -9 -2 -5 8 3 9 1 20 -4 25 -6 6 0
21 19 41 16 17 27 34 23 38 -3 4 4 3 16 0 12 -4 24 -2 28 4 3 5 1 10 -4 10 -6
0 -11 4 -11 9 0 5 15 4 35 -2 32 -9 50 -37 25 -37 -6 0 -8 -11 -6 -25 3 -14 1
-25 -3 -25 -11 0 -32 -50 -26 -61 9 -14 22 -11 29 8 4 9 1 20 -5 24 -8 4 -4 9
10 14 14 4 20 12 17 21 -3 8 -1 14 4 14 15 0 12 -46 -4 -59 -19 -16 -17 -53 3
-46 11 5 12 3 1 -10 -7 -9 -10 -18 -6 -22 3 -3 6 -1 6 7 0 10 3 10 15 0 15
-12 35 -6 35 12 0 5 -6 8 -14 5 -10 -4 -12 0 -9 14 3 10 9 16 14 14 11 -7 16
207 6 265 -11 65 -34 84 -109 86 -35 2 -72 0 -83 -3z"/>
<path d="M7634 414 c4 -12 1 -14 -14 -9 -14 5 -23 -2 -36 -27 -9 -18 -21 -36
-26 -39 -5 -3 -11 -17 -13 -30 -1 -13 -6 -43 -10 -66 -5 -29 -4 -43 3 -43 7 0
10 -15 8 -38 -3 -21 0 -45 5 -53 8 -12 10 -12 8 1 -3 31 3 65 8 50 3 -8 11
-18 17 -22 8 -5 7 -8 -1 -8 -7 0 -13 -9 -13 -20 0 -11 3 -19 8 -19 18 3 26 -2
14 -9 -18 -12 22 -52 53 -52 13 0 25 -5 27 -12 7 -19 79 7 110 39 34 36 59
106 49 141 -5 15 -6 33 -4 40 3 7 -3 31 -12 54 -11 27 -13 43 -6 48 7 3 -1 20
-20 41 -17 18 -28 26 -25 17 3 -12 1 -15 -10 -11 -8 3 -13 12 -10 19 7 18 -32
28 -50 13 -14 -12 -14 -14 3 -20 15 -6 14 -8 -7 -8 -14 -1 -36 -4 -50 -7 -22
-4 -21 -3 5 10 21 10 25 15 12 15 -10 1 -15 6 -12 11 3 6 1 10 -5 10 -7 0 -9
-7 -6 -16z m90 -93 c11 -12 16 -43 18 -100 3 -79 2 -85 -22 -102 -33 -25 -68
-15 -86 25 -10 23 -13 26 -13 11 0 -27 17 -48 58 -68 42 -21 47 -21 31 -2 -20
24 12 19 38 -6 26 -24 20 -44 -8 -29 -10 6 -30 11 -44 12 -14 1 -28 8 -31 16
-3 7 -9 11 -14 8 -14 -9 -37 27 -40 63 -2 20 3 37 11 42 8 5 8 9 2 9 -15 0 0
82 22 119 18 31 51 32 78 2z"/>
<path d="M8042 417 c-10 -12 -10 -16 0 -20 8 -4 7 -6 -4 -6 -16 -1 -23 -12
-19 -33 0 -5 -3 -8 -9 -8 -5 0 -10 5 -10 10 0 6 -9 10 -19 10 -15 0 -19 6 -16
25 2 22 -1 25 -29 24 -17 -1 -23 -3 -13 -6 20 -5 22 -14 5 -31 -7 -7 -8 -12
-2 -12 6 0 11 -18 12 -40 1 -22 -2 -40 -6 -40 -5 0 -8 -24 -8 -52 0 -29 -4
-66 -8 -81 -4 -19 -3 -26 4 -22 13 8 14 -77 1 -90 -6 -6 7 -10 37 -10 l47 0
-1 115 c-1 78 3 123 12 141 14 29 36 41 58 33 9 -4 17 9 25 41 12 49 9 65 -15
65 -17 0 -18 -22 -2 -38 9 -9 9 -12 -1 -12 -7 0 -10 -4 -7 -8 7 -12 -12 -38
-21 -29 -4 5 -1 12 7 17 12 8 11 10 -5 11 -16 0 -17 2 -4 7 10 5 13 15 9 31
-5 21 -7 22 -18 8z"/>
<path d="M8214 417 c-14 -8 -14 -11 -3 -18 10 -6 8 -9 -8 -9 -14 0 -23 -6 -23
-15 0 -8 -4 -15 -10 -15 -14 0 -6 -43 8 -48 7 -2 12 1 12 6 0 7 11 8 29 2 23
-6 31 -5 36 8 3 8 1 20 -5 26 -13 13 -13 26 1 26 5 0 7 -5 4 -10 -10 -16 26
-24 48 -11 21 13 23 12 48 -31 14 -25 49 -23 49 2 0 19 -10 24 -37 21 -19 -3
-16 20 5 35 15 12 14 14 -15 20 -18 3 -33 10 -33 15 0 5 -5 9 -11 9 -5 0 -7
-4 -4 -10 3 -6 -4 -10 -17 -10 -19 0 -20 2 -8 10 20 13 -43 10 -66 -3z"/>
<path d="M8920 420 l25 -8 -33 -13 c-18 -8 -30 -19 -28 -25 2 -6 -2 -11 -10
-11 -7 0 -11 4 -8 9 14 22 -16 5 -31 -18 -17 -27 -12 -50 6 -24 9 13 10 13 6
0 -6 -24 -37 -25 -37 -1 0 11 5 23 10 26 6 4 8 10 5 15 -3 5 16 16 42 25 34
11 38 13 13 9 -19 -4 -45 -7 -57 -8 -11 -1 -19 -4 -16 -8 2 -5 -1 -8 -8 -8 -7
0 -9 -8 -6 -21 7 -25 -1 -49 -16 -49 -7 0 -7 4 1 12 14 14 16 28 3 28 -13 0
-32 -58 -20 -65 5 -4 8 -23 8 -43 l-2 -37 -7 35 -7 35 -1 -35 c-1 -21 6 -45
18 -60 27 -34 26 -59 -1 -29 -18 21 -20 21 -14 4 4 -11 10 -28 13 -38 3 -14 7
-15 13 -6 5 9 10 4 15 -17 9 -39 32 -64 60 -64 13 0 26 -4 29 -10 3 -5 14 -10
23 -9 11 0 12 2 4 6 -6 2 -10 9 -6 14 3 5 12 5 22 0 17 -9 54 -1 53 11 0 4 13
21 28 37 31 33 51 108 44 163 -2 18 -4 38 -5 45 -1 6 -7 9 -15 6 -10 -4 -11 0
-4 18 6 18 2 33 -17 62 -15 23 -31 36 -39 33 -8 -3 -12 -2 -9 3 3 5 -4 11 -17
15 -32 9 -56 5 -27 -4z m73 -72 c-19 -25 -36 -127 -30 -177 4 -32 2 -51 -4
-51 -6 0 -7 5 -3 12 4 7 3 8 -4 4 -9 -5 -9 -13 -2 -26 13 -25 12 -40 -1 -17
-8 13 -18 17 -34 13 -15 -4 -32 2 -49 15 -22 17 -26 18 -26 4 0 -18 20 -28 61
-29 29 -1 29 -1 7 -17 -14 -11 -17 -18 -9 -22 8 -4 7 -5 -1 -3 -7 2 -13 9 -13
17 0 8 -13 17 -30 21 -37 8 -44 2 -19 -17 19 -14 9 -21 -12 -7 -15 9 -30 57
-16 48 17 -11 25 13 23 75 -2 77 22 137 58 145 14 3 33 8 41 10 8 3 11 2 8 -2
-4 -4 -2 -16 4 -28 7 -11 11 -25 10 -29 -1 -5 2 -6 8 -2 5 3 10 15 10 26 0 21
21 61 29 54 2 -3 -1 -10 -6 -17z"/>
<path d="M9135 421 c-3 -6 0 -11 7 -11 8 0 9 -3 3 -8 -15 -11 -18 -51 -4 -68
10 -12 8 -17 -7 -29 -18 -13 -18 -14 -1 -15 14 0 17 -7 15 -36 -1 -19 -6 -38
-10 -40 -4 -3 -7 -47 -7 -99 l0 -94 41 2 42 2 2 128 c2 119 4 131 26 154 15
16 30 23 46 20 12 -2 20 -2 17 1 -2 3 0 11 7 19 6 7 8 16 5 19 -3 3 -2 16 3
29 9 24 -3 36 -33 31 -21 -3 -49 -34 -37 -41 6 -3 14 4 19 17 6 13 10 17 10
11 1 -7 6 -13 12 -13 5 0 7 5 4 10 -3 6 -1 10 4 10 6 0 11 -7 11 -15 0 -8 -7
-15 -15 -15 -7 0 -18 -8 -24 -17 -7 -14 -12 -15 -24 -5 -10 9 -17 10 -22 2
-11 -17 -24 -11 -20 10 3 15 -2 20 -18 21 -21 1 -20 2 3 9 23 7 23 8 3 9 -12
1 -28 4 -36 7 -8 3 -18 1 -22 -5z"/>
<path d="M9658 421 c11 -7 10 -10 -3 -15 -23 -8 -27 -8 -20 4 12 19 -12 10
-32 -12 -23 -26 -36 -58 -24 -58 13 0 32 26 24 33 -10 10 10 8 27 -3 11 -7 9
-11 -13 -19 -29 -11 -37 -41 -12 -41 10 0 15 -10 15 -27 1 -25 2 -26 11 -10 6
10 8 30 5 45 -4 15 -3 22 1 15 6 -8 14 -9 23 -3 47 30 83 -3 94 -87 12 -91
-32 -161 -83 -134 -23 13 -31 14 -31 3 0 -4 10 -12 22 -17 12 -6 23 -17 26
-25 2 -9 0 -11 -5 -4 -4 6 -16 13 -26 17 -21 8 -22 10 -36 120 -9 66 -17 93
-33 109 l-21 21 5 -99 c4 -80 3 -90 -5 -51 -5 26 -13 47 -18 47 -13 0 -11 -38
2 -46 7 -4 9 -21 5 -43 -4 -25 -2 -31 4 -21 8 12 10 9 10 -11 0 -15 8 -33 17
-40 15 -12 16 -12 10 4 -16 40 -18 51 -5 29 8 -12 17 -19 21 -16 10 11 9 -4
-3 -26 -8 -15 -6 -20 10 -25 10 -3 27 -2 37 4 12 6 32 6 53 1 l35 -9 -37 2
c-24 2 -38 -1 -38 -9 0 -8 13 -9 47 -3 55 11 98 48 88 78 -3 11 -1 22 4 26 7
4 8 -1 4 -11 -4 -12 -3 -15 5 -10 7 4 10 17 6 29 -3 13 2 36 10 52 11 21 12
33 4 42 -5 7 -8 26 -6 42 2 17 1 28 -4 25 -5 -3 -6 5 -3 19 9 35 -46 97 -85
97 -16 0 -32 5 -35 10 -3 6 -18 10 -33 10 -19 0 -23 -3 -14 -9z"/>
<path d="M9983 422 c-12 -2 -27 -10 -35 -19 -11 -14 -10 -15 12 -10 22 6 21 5
-3 -6 -36 -17 -47 -34 -47 -74 0 -44 9 -63 31 -63 11 0 22 -8 25 -17 15 -46
16 -48 21 -35 5 13 73 17 73 4 0 -5 10 -20 21 -33 l22 -24 -6 30 -6 30 15 -33
c11 -25 12 -37 3 -50 -10 -16 -10 -16 -5 1 3 11 2 15 -4 12 -6 -3 -10 -13 -10
-20 0 -18 -37 -38 -52 -29 -6 4 -23 7 -38 6 -23 0 -27 3 -23 19 4 14 0 19 -16
19 -11 0 -21 -5 -21 -11 0 -6 -9 -8 -20 -4 -13 4 -20 2 -20 -7 0 -16 19 -47
20 -33 1 6 5 0 10 -13 5 -12 15 -24 22 -26 7 -1 27 -8 45 -13 18 -6 32 -8 31
-5 -3 13 13 52 22 52 15 0 17 -24 3 -39 -20 -20 -9 -25 30 -12 29 10 33 15 30
39 -3 15 3 41 11 57 18 35 21 22 5 -24 -9 -25 -9 -35 0 -44 9 -9 11 -8 6 5 -4
11 0 18 13 22 25 8 36 36 22 50 -8 8 -9 6 -5 -6 4 -11 2 -18 -4 -18 -17 0 -13
28 5 38 11 6 13 11 5 16 -6 4 -11 4 -12 -1 -1 -4 -5 3 -9 17 l-8 25 -1 -25
c-1 -19 -4 -21 -10 -11 -6 9 -5 21 2 32 10 16 12 15 28 -5 10 -11 18 -16 19
-9 0 6 -5 15 -10 18 -6 4 -8 10 -5 15 3 5 -4 11 -15 15 -11 4 -18 10 -16 14 3
4 -9 15 -27 25 l-32 17 25 -22 c20 -18 21 -21 5 -14 -11 4 -28 8 -38 9 -10 0
-15 6 -12 14 3 10 -1 12 -15 7 -15 -5 -26 0 -40 17 -25 30 -25 40 3 66 22 21
59 31 55 15 -3 -11 25 -53 35 -53 4 0 5 5 2 10 -4 6 10 10 35 10 38 0 40 1 30
20 -6 11 -16 17 -22 14 -7 -4 -8 -2 -4 5 10 15 -13 43 -30 37 -7 -3 -16 -1
-19 4 -4 6 -21 9 -38 9 l-32 -1 30 -8 30 -8 -32 -1 c-17 0 -33 2 -35 7 -1 4
-13 6 -25 4z"/>
<path d="M10565 421 c-16 -15 -59 -25 -51 -12 8 13 -3 14 -22 2 -11 -6 -10
-11 3 -25 9 -9 12 -16 6 -16 -6 0 -7 -8 -4 -17 6 -15 5 -16 -9 -3 -10 9 -12
17 -6 21 7 4 7 9 0 13 -15 9 -24 -10 -18 -37 3 -12 3 -16 0 -9 -10 21 -26 13
-19 -9 5 -16 4 -19 -6 -14 -9 6 -10 3 -5 -10 4 -11 2 -21 -5 -26 -15 -9 -14
-119 1 -129 6 -4 10 -11 9 -16 -5 -27 4 -47 36 -79 29 -29 41 -34 62 -29 16 4
24 3 20 -3 -4 -6 11 -7 44 -2 37 6 57 16 75 36 30 35 54 84 47 96 -10 16 -73
-1 -104 -27 -37 -31 -53 -32 -79 -6 -12 12 -24 19 -28 16 -4 -2 -7 29 -7 69 0
41 3 68 7 62 8 -13 13 20 9 62 -2 21 0 23 13 12 13 -11 16 -11 16 3 0 9 7 16
15 16 8 0 15 -4 15 -10 0 -5 6 -10 13 -10 7 0 23 -12 36 -26 12 -14 30 -24 39
-22 18 3 30 48 13 48 -6 0 -8 -7 -5 -15 4 -8 1 -15 -5 -15 -6 0 -11 7 -11 16
0 14 -2 15 -17 3 -14 -12 -16 -12 -11 1 2 8 14 16 26 18 12 2 22 9 22 15 1 7
7 1 15 -13 8 -14 14 -21 15 -16 0 5 -9 23 -20 41 -27 43 -100 70 -125 46z"/>
<path d="M10871 414 c-19 -8 -31 -17 -28 -21 4 -3 13 0 22 7 9 7 18 10 21 8 3
-3 -8 -12 -25 -19 -16 -7 -27 -17 -25 -21 3 -4 -2 -8 -10 -8 -9 0 -18 -12 -21
-27 -4 -16 -10 -44 -14 -63 -14 -64 -4 -123 24 -143 17 -13 25 -28 25 -49 0
-18 5 -28 12 -26 6 2 22 -6 36 -19 31 -28 50 -29 108 -3 45 21 64 58 23 45
-14 -5 -25 -2 -30 6 -6 9 -12 10 -16 4 -13 -17 -49 -17 -63 0 -15 18 0 20 19
2 11 -10 14 -9 18 1 3 6 9 10 13 7 5 -3 12 0 16 6 4 8 -2 9 -23 5 -23 -5 -35
-2 -55 19 -24 23 -26 31 -22 95 2 38 9 80 16 92 7 13 11 26 11 29 -1 4 14 3
34 -1 20 -5 46 -4 61 1 13 5 27 7 30 4 3 -3 0 -5 -7 -5 -7 0 -11 -6 -8 -14 3
-7 0 -19 -6 -25 -6 -6 -10 -28 -9 -49 2 -20 -1 -59 -7 -86 -10 -56 -6 -76 16
-76 13 0 13 3 3 15 -11 13 -10 14 4 9 9 -3 16 -11 16 -17 0 -23 20 9 30 48
l10 40 -5 -45 c-4 -38 -3 -42 7 -25 19 31 14 187 -6 230 -14 29 -21 35 -39 30
-18 -5 -19 -4 -7 5 13 9 12 13 -9 30 -25 21 -57 27 -45 9 5 -8 1 -8 -14 0 -27
14 -40 13 -81 -5z"/>
<path d="M11167 423 c-12 -11 -8 -21 11 -26 15 -4 15 -5 -2 -6 -12 -1 -16 -6
-12 -17 3 -9 6 -25 7 -37 1 -20 2 -20 9 3 7 23 8 23 9 3 1 -12 -3 -25 -9 -28
-13 -8 -13 -90 0 -136 8 -28 7 -43 -5 -65 -17 -33 -20 -78 -5 -69 6 3 10 16
10 27 0 28 5 21 14 -17 5 -22 4 -26 -4 -15 -8 13 -10 13 -10 -2 0 -11 8 -18
19 -18 17 0 19 10 20 106 2 118 7 137 46 177 29 28 49 34 60 17 3 -5 12 -10
18 -9 9 0 9 2 0 6 -7 2 -13 9 -13 15 0 6 7 7 16 4 11 -4 15 -2 11 7 -3 8 1 14
9 14 22 0 17 -37 -8 -59 -13 -11 -17 -17 -10 -13 10 5 11 0 6 -21 -5 -19 -4
-25 5 -20 9 6 11 -11 10 -66 -1 -40 -4 -77 -7 -82 -3 -5 -6 -21 -6 -35 -1 -25
1 -26 39 -22 22 3 32 6 23 8 -14 4 -15 8 -6 29 9 20 9 27 -2 34 -10 6 -13 28
-11 77 1 37 4 70 7 72 2 2 10 -1 17 -8 12 -9 13 -6 9 15 -4 20 -2 25 8 19 9
-6 10 -3 1 14 -10 17 -9 20 4 15 11 -5 14 -2 9 12 -6 15 -4 17 6 7 11 -10 16
-9 26 5 13 16 13 16 14 0 0 -10 11 -20 25 -24 14 -3 25 -10 25 -16 0 -5 5 -6
10 -3 6 3 10 -1 10 -9 0 -17 -20 -17 -33 -1 -5 6 -6 1 -2 -10 4 -11 10 -73 12
-137 3 -66 10 -118 15 -118 6 0 8 10 5 23 -9 34 -12 206 -4 213 4 4 7 -20 7
-54 0 -56 11 -85 24 -63 3 5 9 48 12 97 5 57 10 81 15 69 4 -11 8 -15 8 -8 2
27 -20 63 -38 63 -10 0 -21 8 -25 18 -3 9 -9 24 -12 32 -3 9 0 8 10 -4 8 -10
21 -16 28 -14 8 3 2 11 -16 23 -23 15 -32 16 -47 7 -13 -8 -19 -9 -19 -1 0 5
-5 7 -10 4 -6 -4 -8 -11 -5 -16 3 -5 0 -6 -8 -3 -8 3 -18 -5 -25 -20 -12 -26
-42 -27 -42 -1 0 20 -33 43 -55 38 -11 -3 -29 -5 -40 -6 -11 -1 -29 -10 -40
-21 -11 -10 -13 -16 -5 -12 8 4 4 -1 -9 -12 -16 -13 -21 -25 -17 -39 4 -13 -1
-26 -16 -39 -12 -10 -18 -14 -15 -7 4 6 3 14 -3 18 -5 3 -10 14 -10 23 0 14 2
13 13 -3 9 -12 16 -14 21 -7 4 6 -2 20 -13 31 -19 19 -19 20 -2 26 10 3 18 12
18 20 0 13 -3 13 -19 -2 -17 -15 -18 -15 -18 0 0 10 6 17 13 18 6 0 3 4 -8 9
-25 11 -40 12 -48 3z"/>
<path d="M11940 415 c0 -11 -7 -14 -27 -10 -23 4 -25 4 -8 -4 15 -7 16 -10 4
-10 -14 -1 -16 -21 -13 -173 3 -217 2 -206 13 -189 7 11 10 11 16 0 6 -9 10
-8 16 7 7 18 8 18 8 0 1 -15 4 -16 16 -6 12 10 15 33 13 99 l-2 86 -6 -85 -6
-85 -2 100 c-1 68 1 95 8 85 7 -11 10 -7 11 18 2 52 3 52 31 69 22 14 29 14
42 4 9 -8 16 -20 16 -27 0 -8 3 -14 8 -14 4 0 5 -50 4 -111 -3 -86 -1 -114 10
-120 10 -7 10 -9 1 -9 -7 0 -13 -5 -13 -11 0 -6 17 -9 43 -7 l42 3 0 132 c0
72 3 129 7 127 14 -9 13 32 -2 44 -13 11 -12 11 7 3 28 -14 66 -14 80 0 8 8
15 3 27 -19 20 -39 20 -56 0 -19 -18 34 -37 37 -24 3 5 -13 6 -64 3 -114 -6
-94 1 -162 17 -162 6 0 10 10 11 23 1 21 1 21 9 -3 4 -14 9 -18 9 -10 1 12 3
13 10 1 5 -7 14 -12 20 -10 15 5 22 235 8 263 -6 13 -6 16 2 11 12 -7 11 1 -9
74 -6 26 -27 33 -73 24 -20 -4 -25 -8 -15 -14 10 -7 11 -9 0 -9 -8 0 -10 -5
-6 -12 4 -8 3 -10 -2 -5 -5 5 -9 14 -9 20 0 5 -6 12 -14 15 -8 3 -11 0 -7 -7
4 -6 2 -11 -3 -11 -6 0 -11 6 -11 13 0 9 -3 8 -9 -2 -10 -16 -51 -6 -51 13 0
8 -7 19 -15 26 -9 8 -15 8 -15 2 0 -6 6 -13 13 -16 6 -3 0 -3 -15 0 -20 4 -28
2 -28 -8 0 -18 -37 -41 -45 -28 -3 6 0 10 7 10 10 0 10 2 -1 9 -9 6 -10 11 -2
15 6 4 11 2 11 -3 0 -6 5 -11 10 -11 16 0 11 17 -7 24 -10 4 -23 -1 -35 -14
-10 -11 -14 -20 -8 -20 5 0 10 -6 10 -14 0 -11 -5 -12 -25 -3 -14 7 -25 16
-25 20 0 5 -4 5 -10 2 -5 -3 -10 1 -10 10 0 10 5 13 13 9 8 -5 8 -2 -2 9 -17
21 -21 21 -21 2z"/>
<path d="M12481 424 c-1 -7 -12 -9 -27 -6 -25 5 -26 3 -20 -24 4 -16 16 -42
27 -59 19 -28 20 -28 14 -5 l-7 25 17 -24 c14 -18 15 -25 5 -31 -10 -6 -8 -15
6 -38 16 -27 16 -34 4 -59 -15 -29 -17 -37 -19 -66 0 -10 -5 -16 -10 -13 -5 3
-12 -1 -15 -10 -3 -8 -2 -12 4 -9 6 3 10 2 10 -4 0 -5 -4 -11 -10 -13 -5 -1
-13 -18 -16 -37 l-7 -33 29 18 c25 17 27 17 22 2 -5 -12 -3 -15 8 -11 8 3 13
12 10 19 -3 8 0 11 8 8 14 -5 25 22 32 81 2 16 9 34 14 39 13 13 13 0 -1 -27
-11 -22 -11 -22 10 1 27 27 28 27 27 -1 -1 -12 4 -21 12 -20 6 2 13 -7 13 -20
5 -79 10 -87 58 -87 33 0 39 4 43 25 4 21 3 23 -9 13 -11 -9 -16 -9 -22 1 -6
10 -10 9 -14 -3 -7 -18 -32 -21 -42 -6 -3 5 0 7 8 4 8 -3 19 1 23 8 14 22 13
101 -2 123 -7 11 -15 43 -18 70 -2 28 -4 54 -5 58 -1 5 -5 6 -10 2 -6 -3 -14
3 -20 12 -9 16 -10 16 -11 -5 0 -13 -4 -20 -10 -17 -14 9 -38 -17 -32 -34 3
-8 0 -11 -6 -8 -5 4 -12 -2 -15 -13 -5 -20 7 -37 16 -23 2 5 2 2 0 -5 -1 -8
-3 -21 -3 -30 0 -9 -8 -2 -17 17 -13 26 -14 37 -5 52 14 22 15 30 5 27 -5 -2
-9 2 -10 7 -1 6 7 10 17 9 14 0 20 6 20 23 0 13 -5 23 -11 23 -6 0 -9 6 -6 13
3 7 -1 24 -9 38 -8 15 -14 18 -14 9 -1 -10 -4 -9 -10 5 l-9 20 -1 -20 -1 -20
-9 20 c-5 11 -9 15 -9 9z"/>
<path d="M4005 403 c4 -10 8 -23 8 -30 0 -7 4 -10 9 -6 6 3 9 -3 8 -13 -5 -41
0 -56 15 -50 8 3 15 1 15 -4 0 -6 -4 -10 -8 -10 -7 0 -8 -21 -3 -68 0 -7 5
-11 10 -7 5 3 11 0 14 -7 2 -7 3 -1 1 15 -2 15 1 27 7 27 5 0 8 -26 7 -62 -2
-35 1 -74 6 -87 6 -17 5 -22 -4 -16 -8 5 -9 2 -1 -11 5 -11 12 -27 15 -36 8
-26 36 -22 37 5 1 21 1 21 9 -3 7 -23 8 -23 10 10 l2 35 7 -30 c7 -29 7 -30
19 -8 7 12 12 30 11 40 0 16 -1 16 -9 -2 -8 -19 -9 -19 -9 3 -1 12 3 22 7 22
15 0 30 65 25 112 -3 40 -2 47 11 42 17 -6 36 23 37 58 0 14 3 17 6 8 14 -42
16 -44 23 -15 l6 30 5 -32 c3 -18 2 -30 -3 -27 -4 3 -8 -1 -8 -8 0 -10 -3 -9
-10 2 -5 8 -11 12 -15 9 -8 -9 6 -69 16 -64 4 3 5 -10 2 -28 -3 -21 1 -45 11
-64 8 -17 17 -48 19 -69 4 -40 5 -40 57 -36 25 2 26 19 3 25 -17 4 -17 5 0 6
9 0 17 7 18 14 0 6 4 3 9 -8 8 -19 9 -19 9 2 1 12 -5 24 -11 26 -8 3 -5 6 5 6
14 1 17 6 12 22 -5 15 -4 19 4 15 7 -5 11 2 11 18 0 13 3 32 7 42 5 13 3 15
-8 9 -11 -6 -12 -5 -1 6 6 7 12 23 12 36 0 13 3 23 8 23 9 0 32 73 31 97 0 11
-3 13 -6 6 -2 -7 -14 -13 -24 -13 -11 0 -17 5 -14 10 3 6 -2 10 -12 10 -14 0
-20 -8 -21 -32 -4 -49 -7 -67 -15 -74 -4 -4 -2 -13 4 -21 7 -8 8 -13 1 -13 -5
0 -13 -7 -16 -16 -5 -12 -2 -15 9 -10 12 4 14 2 7 -11 -5 -9 -8 -23 -7 -32 1
-9 0 -10 -2 -3 -8 23 -20 12 -17 -15 4 -24 2 -24 -9 6 -11 28 -15 31 -20 17
-11 -27 -8 -43 4 -26 8 12 9 9 4 -10 -4 -14 -6 -37 -6 -52 1 -16 -3 -28 -8
-28 -12 0 -21 63 -14 105 4 23 2 35 -6 35 -6 0 -11 12 -11 27 0 26 1 26 15 7
14 -19 14 -19 14 1 -1 26 -36 164 -38 147 -1 -10 -4 -10 -16 2 -8 8 -15 19
-15 25 0 14 -47 14 -55 1 -4 -7 3 -9 22 -5 26 5 26 5 6 -6 -27 -14 -31 -26
-23 -64 6 -29 6 -29 13 13 7 39 16 50 30 36 9 -9 -4 -35 -14 -28 -5 3 -9 -4
-9 -15 0 -10 -3 -27 -7 -37 -5 -13 -3 -15 7 -9 9 5 11 4 6 -3 -12 -21 -24 -13
-31 19 -5 22 -10 28 -15 18 -5 -7 -7 -16 -4 -20 2 -4 -3 -24 -12 -45 -10 -23
-14 -53 -11 -76 3 -21 2 -40 -3 -43 -4 -2 -10 -18 -14 -35 -3 -18 -10 -29 -16
-25 -7 4 -7 13 1 26 6 12 7 39 3 65 -5 37 -8 42 -18 29 -9 -13 -12 -7 -13 32
0 40 1 43 7 18 l8 -30 1 27 c0 15 -4 30 -9 33 -6 3 -8 18 -5 33 4 21 3 22 -3
8 -8 -19 -9 -19 -16 -1 -4 11 -2 22 6 27 10 6 10 10 -2 18 -13 9 -13 10 0 11
10 0 8 3 -5 9 -30 13 -35 12 -35 -11 0 -11 -5 -17 -10 -14 -6 4 -8 10 -5 15 3
5 0 12 -7 17 -9 5 1 10 27 14 l40 6 -49 2 c-42 1 -47 -1 -41 -16z"/>
<path d="M4575 410 c3 -5 2 -10 -3 -10 -16 0 -22 -29 -12 -56 9 -22 8 -25 -5
-20 -13 4 -14 2 -5 -14 5 -10 10 -32 10 -49 0 -16 5 -33 10 -36 6 -4 7 -11 4
-17 -4 -7 -2 -8 5 -4 8 6 10 1 6 -17 -4 -14 -2 -28 5 -32 6 -4 8 -16 4 -28 -6
-20 -6 -20 10 -4 22 21 21 21 23 -5 2 -16 0 -19 -6 -10 -6 10 -10 8 -14 -7 -3
-12 -1 -21 3 -21 4 0 6 -8 3 -19 -3 -10 1 -22 8 -27 9 -5 10 -2 6 10 -4 10 -3
15 3 11 6 -3 10 -14 10 -23 0 -14 2 -14 9 -3 5 7 14 10 20 7 6 -4 11 -2 11 3
0 6 4 11 10 11 5 0 7 -8 4 -18 -5 -13 -4 -14 4 -3 6 8 8 20 5 28 -3 7 -1 19 5
26 5 6 9 19 9 27 1 8 4 23 8 33 4 10 3 17 -4 17 -6 0 -11 7 -11 16 0 13 3 14
14 5 11 -9 15 -7 19 10 4 14 2 19 -7 16 -7 -3 -13 0 -14 6 -1 7 -4 26 -7 42
-5 23 -4 26 4 15 6 -8 11 -24 11 -35 1 -18 2 -18 11 3 5 13 15 29 22 37 12 11
16 5 27 -37 7 -28 13 -62 15 -77 3 -38 16 -81 25 -81 4 0 10 -9 13 -19 3 -14
1 -18 -9 -14 -9 3 -12 0 -9 -9 8 -20 35 -19 35 1 1 14 2 13 11 -2 5 -9 16 -17
24 -17 17 0 30 43 19 61 -4 7 -3 10 3 6 11 -7 39 105 34 137 -1 11 1 40 5 65
l8 46 7 -35 c6 -34 6 -33 8 13 0 28 6 47 13 47 6 0 9 3 5 6 -3 3 -2 17 3 30 8
21 7 24 -13 24 -17 0 -19 -2 -7 -10 8 -5 11 -13 6 -17 -4 -4 -13 -1 -19 7 -24
32 -42 18 -40 -30 2 -35 1 -41 -7 -25 -9 18 -10 18 -8 -5 1 -14 -2 -39 -6 -57
-4 -17 -8 -45 -8 -62 -1 -17 -4 -31 -7 -31 -4 0 -7 -25 -7 -56 0 -32 3 -48 7
-37 7 16 8 15 8 -4 1 -25 -13 -31 -25 -11 -5 8 -10 6 -15 -8 -5 -11 -6 -3 -2
21 3 22 11 43 17 47 8 5 8 10 0 18 -8 8 -15 3 -24 -19 -12 -30 -30 -42 -30
-21 0 6 4 10 8 10 11 0 34 64 23 68 -5 2 -6 12 -3 24 4 16 2 19 -8 13 -10 -6
-11 -2 -7 16 7 29 -8 102 -22 107 -6 2 -11 8 -11 13 0 6 4 8 9 5 4 -3 6 6 3
19 -4 23 -9 25 -51 23 l-46 -1 45 -6 c33 -4 40 -8 27 -13 -10 -5 -29 -8 -42
-8 -17 0 -26 -8 -34 -31 -13 -39 -14 -49 -1 -29 6 9 10 10 10 3 0 -6 8 -14 18
-16 16 -4 16 -5 0 -6 -10 0 -18 -7 -18 -13 0 -10 -3 -9 -9 1 -6 9 -11 10 -15
2 -4 -6 -5 -11 -2 -11 3 0 1 -11 -4 -26 -6 -14 -12 -38 -15 -54 -7 -38 -23
-80 -31 -80 -3 0 -3 13 1 30 4 20 3 30 -5 30 -7 0 -9 8 -5 19 4 13 0 23 -12
29 -15 9 -15 14 -5 37 14 30 16 46 3 27 -6 -10 -10 -7 -13 12 -3 14 -1 26 3
26 5 0 9 7 9 15 0 8 -4 15 -9 15 -15 0 -23 -35 -15 -65 5 -21 4 -26 -7 -23
-17 6 -13 54 6 85 11 16 12 23 2 26 -9 4 -9 6 1 6 18 1 5 21 -14 21 -8 0 -12
-4 -9 -10z"/>
<path d="M5046 408 c5 -7 10 -22 11 -33 1 -11 6 -36 9 -55 4 -19 6 -44 5 -55
-2 -17 0 -17 8 -5 8 12 11 6 11 -22 0 -40 19 -64 21 -26 0 13 3 17 6 11 2 -7
0 -28 -7 -47 -9 -29 -8 -39 10 -71 11 -20 20 -42 19 -48 -5 -38 22 -54 35 -21
5 13 9 14 21 4 21 -17 35 -3 34 33 -1 31 -1 31 -10 7 -7 -20 -8 -17 -4 15 2
22 1 35 -3 29 -21 -32 -79 -5 -69 33 4 16 6 15 12 -5 9 -27 25 -29 32 -2 3 11
9 20 15 20 5 0 4 -10 -3 -22 -10 -18 -9 -20 5 -15 11 4 19 1 23 -10 8 -19 34
82 36 133 1 38 18 36 35 -4 11 -25 11 -24 6 13 -5 37 -4 39 10 20 14 -19 15
-17 10 20 -5 32 -3 37 6 25 9 -12 11 -8 6 19 -3 18 -6 41 -6 50 -1 14 -2 14
-14 -2 -8 -10 -16 -14 -17 -9 -6 15 -69 23 -70 9 0 -6 -2 -30 -4 -52 -3 -29
-2 -35 5 -20 9 20 9 20 9 -1 1 -11 -4 -25 -9 -30 -8 -8 -7 -26 0 -59 6 -26 8
-50 5 -53 -3 -3 -5 3 -5 14 0 16 -2 17 -10 4 -7 -11 -8 -6 -4 16 4 20 2 34 -6
39 -10 6 -11 1 -6 -19 5 -20 4 -26 -5 -20 -7 4 -9 3 -5 -4 3 -6 2 -13 -4 -17
-5 -3 -10 -16 -10 -28 0 -18 -2 -19 -10 -7 -5 8 -10 24 -10 34 0 10 -8 25 -17
32 -16 11 -16 17 -6 45 12 32 9 54 -7 44 -4 -3 -10 9 -12 25 -3 17 -1 30 4 30
5 0 8 10 6 23 -2 18 -10 23 -46 25 -34 3 -42 0 -36 -10z"/>
<path d="M5448 376 c2 -29 0 -37 -7 -27 -9 15 -10 14 -26 -91 -2 -15 0 -28 5
-30 5 -2 4 -19 -3 -40 -10 -28 -16 -35 -25 -26 -8 8 -13 2 -21 -23 -8 -28 -9
-23 -4 30 5 52 3 63 -8 59 -8 -3 -19 4 -26 16 -12 21 -12 21 -13 -4 -1 -14 -3
-37 -4 -52 -1 -14 1 -25 5 -22 4 2 7 -6 7 -19 1 -96 30 -150 59 -111 12 16 13
17 13 1 0 -21 16 -22 24 -1 8 21 8 35 -1 31 -10 -3 -13 6 -13 39 0 14 4 23 9
20 5 -3 6 -16 3 -29 -5 -21 -5 -21 12 -5 21 22 27 45 31 123 3 55 3 56 -3 12
-7 -48 -25 -67 -29 -31 -3 18 -2 18 6 -1 8 -17 10 -16 10 12 1 17 -4 35 -11
39 -8 5 -6 11 6 20 10 7 15 17 11 23 -3 6 -4 11 -1 11 3 0 12 -12 19 -26 13
-26 14 -26 20 -5 3 11 1 19 -4 15 -5 -3 -9 4 -9 16 0 12 4 19 9 16 5 -3 11 4
14 17 3 12 9 36 15 52 9 30 9 30 -32 31 l-41 1 3 -41z"/>
<path d="M8370 413 c17 -7 40 -29 40 -38 0 -3 -10 -4 -22 0 -23 6 -23 6 1 -13
19 -15 22 -25 17 -46 -4 -17 -11 -24 -18 -20 -7 5 -9 2 -5 -9 6 -15 -17 -33
-37 -28 -5 1 -22 -1 -39 -5 -22 -4 -26 -8 -16 -15 17 -11 32 -12 26 -1 -3 4
15 7 40 7 25 0 40 -1 34 -3 -8 -3 -8 -9 0 -24 10 -19 10 -19 -15 -3 -14 9 -33
15 -43 12 -14 -4 -12 -5 5 -6 21 -1 23 -5 21 -38 -3 -33 -34 -113 -44 -113 -2
0 -16 5 -31 10 -31 12 -51 -5 -32 -27 8 -10 6 -13 -5 -13 -24 0 -30 18 -12 36
10 10 13 24 9 38 -12 39 -23 36 -26 -7 -1 -15 -8 -27 -14 -27 -13 0 -7 48 9
68 5 7 8 13 6 15 -50 28 -52 29 -60 15 -5 -7 -9 -32 -9 -54 0 -43 20 -71 41
-58 7 4 9 3 5 -4 -3 -5 -3 -12 1 -15 5 -2 2 -2 -4 -1 -26 6 -12 -14 17 -26 26
-11 38 -10 75 5 25 9 45 23 45 31 0 8 5 14 10 14 6 0 10 10 10 22 0 33 9 17
14 -26 3 -21 7 -41 10 -43 11 -11 36 20 36 44 0 14 4 21 10 18 6 -4 10 6 11
22 0 25 1 26 9 8 7 -16 9 -17 9 -3 1 9 -3 20 -9 23 -5 3 -10 42 -10 86 0 46 4
79 10 79 6 0 10 5 10 10 0 6 -5 9 -12 8 -7 -2 -12 9 -13 28 0 35 -29 74 -54
73 -13 0 -14 -2 -1 -6z"/>
<path d="M9419 403 c-1 -10 -1 -34 0 -53 0 -29 -1 -31 -8 -15 -9 18 -10 17
-10 -7 -1 -16 4 -28 9 -28 6 0 10 -40 9 -102 0 -67 -3 -96 -9 -83 -8 18 -9 17
-9 -8 -1 -16 3 -26 9 -22 6 3 10 -3 10 -14 0 -12 -4 -21 -10 -21 -5 0 -10 -7
-10 -16 0 -10 7 -14 23 -12 18 2 23 10 25 42 3 29 6 36 13 25 6 -9 8 3 7 39 0
29 -5 55 -10 58 -4 3 -8 23 -8 45 0 22 4 38 9 34 6 -3 9 18 8 51 -2 41 -7 58
-20 65 -22 13 -22 26 1 32 13 4 11 5 -5 6 -15 1 -23 -5 -24 -16z"/>
</g>
</svg>
